<?xml version="1.0" encoding="UTF-8"?>
<svg width="16px" height="15px" viewBox="0 0 16 15" version="1.1" xmlns="http://www.w3.org/2000/svg" xmlns:xlink="http://www.w3.org/1999/xlink">
    <!-- Generator: Sketch 50.2 (55047) - http://www.bohemiancoding.com/sketch -->
    <title>basket</title>
    <desc>Created with Sketch.</desc>
    <defs></defs>
    <g id="Page-1" stroke="none" stroke-width="1" fill="none" fill-rule="evenodd">
        <g id="splice" transform="translate(-1105.000000, -10.000000)" fill="#003578">
            <g id="header" transform="translate(0.000000, -1.000000)">
                <g id="topStrip">
                    <g id="shopping-basket" transform="translate(1105.000000, 11.000000)">
                        <path d="M13.7450118,4.29739437 L11.0433176,0.35556338 C10.8453176,0.0667605634 10.4499529,-0.0073943662 10.1602588,0.190140845 C9.87056471,0.387887324 9.79644706,0.782112676 9.99444706,1.07112676 L12.2018824,4.29147887 L3.65844706,4.29147887 L5.86567059,1.07112676 C6.06367059,0.782112676 5.98934118,0.387887324 5.69985882,0.190140845 C5.40974118,-0.0076056338 5.01458824,0.0667605634 4.8168,0.35556338 L2.11531765,4.29739437 C0.939176471,4.35697183 0,5.32753521 0,6.51570423 C0,7.1015493 0.232729412,7.65612676 0.646305882,8.07190141 L1.54037647,13.3457746 C1.57192941,14.2073239 2.28430588,14.8985915 3.15529412,14.8985915 L12.7046118,14.8985915 C13.5756,14.8985915 14.2881882,14.2075352 14.3197412,13.3457746 L15.2138118,8.07190141 C15.6271765,7.65612676 15.8601176,7.1015493 15.8601176,6.51570423 C15.8599059,5.32774648 14.9209412,4.3571831 13.7450118,4.29739437 L13.7450118,4.29739437 Z M14.2255059,7.25640845 L14.0374588,7.40725352 L13.0588941,13.1803521 L13.05,13.2859859 C13.05,13.4759155 12.8949882,13.6307746 12.7044,13.6307746 L3.15529412,13.6307746 C2.96470588,13.6307746 2.80969412,13.4761268 2.80969412,13.2859859 L1.82202353,7.40725352 L1.63418824,7.25640845 C1.40294118,7.07070423 1.27037647,6.80070423 1.27037647,6.51549296 C1.27037647,5.98795775 1.70025882,5.55908451 2.22861176,5.55908451 L13.6308706,5.55908451 C14.1592235,5.55908451 14.5891059,5.98816901 14.5891059,6.51549296 C14.5893176,6.80091549 14.4567529,7.07091549 14.2255059,7.25640845 Z M11.0043529,7.21521127 C10.6534588,7.21521127 10.3690588,7.49894366 10.3690588,7.84901408 L10.3690588,12.2917606 C10.3690588,12.641831 10.6534588,12.9255634 11.0043529,12.9255634 C11.3552471,12.9255634 11.6396471,12.641831 11.6396471,12.2917606 L11.6396471,7.84901408 C11.6396471,7.49894366 11.3552471,7.21521127 11.0043529,7.21521127 Z M7.92995294,7.21521127 C7.57905882,7.21521127 7.29465882,7.49894366 7.29465882,7.84901408 L7.29465882,12.2917606 C7.29465882,12.641831 7.57905882,12.9255634 7.92995294,12.9255634 C8.28084706,12.9255634 8.56524706,12.641831 8.56524706,12.2917606 L8.56524706,7.84901408 C8.56524706,7.49894366 8.28084706,7.21521127 7.92995294,7.21521127 Z M4.85555294,7.21521127 C4.50465882,7.21521127 4.22025882,7.49894366 4.22025882,7.84901408 L4.22025882,12.2917606 C4.22025882,12.641831 4.50465882,12.9255634 4.85555294,12.9255634 C5.20644706,12.9255634 5.49084706,12.641831 5.49084706,12.2917606 L5.49084706,7.84901408 C5.49084706,7.49894366 5.20644706,7.21521127 4.85555294,7.21521127 Z" id="basket"></path>
                    </g>
                </g>
            </g>
        </g>
    </g>
</svg>