<?xml version="1.0" encoding="UTF-8"?>
<svg width="29px" height="29px" viewBox="0 0 29 29" version="1.1" xmlns="http://www.w3.org/2000/svg" xmlns:xlink="http://www.w3.org/1999/xlink">
    <!-- Generator: Sketch 50.2 (55047) - http://www.bohemiancoding.com/sketch -->
    <title>call</title>
    <desc>Created with Sketch.</desc>
    <defs></defs>
    <g id="Page-1" stroke="none" stroke-width="1" fill="none" fill-rule="evenodd">
        <g id="splice" transform="translate(-1031.000000, -93.000000)" fill="#ABABAB" fill-rule="nonzero">
            <g id="header" transform="translate(0.000000, -1.000000)">
                <g id="middleStrip" transform="translate(243.000000, 53.000000)">
                    <g id="Group" transform="translate(788.000000, 41.000000)">
                        <path d="M22.6836161,11.617707 C23.3273261,10.0292892 22.9604924,8.22161926 21.7487309,7.00985768 C20.5046176,5.76492697 18.5901845,5.41563265 16.9862341,6.14194663 C16.9759826,6.14654357 16.9713819,6.15877376 16.9772961,6.17185298 C16.9813499,6.18089324 16.995394,6.18614515 17.0069432,6.18090738 C18.5969476,5.46665931 20.4867082,5.81038245 21.7172327,7.04090702 C22.9154263,8.24010247 23.2792754,10.030816 22.6417182,11.6026394 C22.6378346,11.612071 22.6428717,11.6239506 22.6537897,11.6283876 C22.6714314,11.6306688 22.6808877,11.6244227 22.6836161,11.617707 Z M22.6631183,12.4856688 C22.5507755,12.4856688 22.4398568,12.4640154 22.3330171,12.4209333 C21.8835005,12.2383172 21.6662729,11.7260086 21.8502658,11.2791845 C22.3578182,10.0278603 22.0680332,8.60165902 21.1125301,7.64535697 C20.1335719,6.66639872 18.6239751,6.39182248 17.3587834,6.9601575 C16.9186708,7.15988732 16.3956074,6.96428338 16.1977196,6.52297059 C15.9976837,6.08078592 16.1934307,5.56042516 16.6349713,5.36243591 C18.5619091,4.48986032 20.8577526,4.90874417 22.3534064,6.40538067 C23.807903,7.85987721 24.2487199,10.0321187 23.4758827,11.93917 C23.3409365,12.2713454 23.0164608,12.4856688 22.6631183,12.4856688 Z M26.6807183,14.1164688 C26.5683755,14.1164688 26.4574568,14.0948154 26.3511549,14.0519514 C25.9005043,13.8695869 25.6837494,13.3571086 25.8678372,12.9100549 C27.0319353,10.038613 26.3692702,6.76949702 24.1788301,4.57905697 C21.9303588,2.33058569 18.469565,1.69941631 15.566642,3.01166868 C15.1256828,3.2041509 14.6094411,3.01123389 14.4094826,2.56920847 C14.2119461,2.12693655 14.4071474,1.60838238 14.8488428,1.40856788 C18.4107478,-0.200277706 22.6564813,0.574055497 25.4197064,3.33728067 C28.109993,6.02756729 28.9242343,10.0440301 27.4940594,13.5676431 C27.3596003,13.902067 27.035006,14.1164688 26.6807183,14.1164688 Z M18.4432854,18.9946822 C20.9748192,16.4254076 22.7404913,16.144827 26.3145079,19.017409 C27.7772667,20.1929314 28.5564439,21.4101788 28.6113998,22.739424 C28.676863,24.3352084 27.9870138,25.3078721 26.1394715,27.0616274 C25.6945826,27.4858772 25.7666784,27.4167613 25.6495017,27.5339376 C24.9219039,28.2603503 23.8338296,28.6118688 22.5056183,28.6118688 C21.2684192,28.6118688 19.8213885,28.3062832 18.2681753,27.7207539 C14.904395,26.4519842 11.2784386,23.9686418 8.03384198,20.7240451 C4.78942965,17.4796328 2.30594831,13.8527461 1.0372717,10.4882788 C-0.181908466,7.26045744 -0.185517976,4.51695248 1.22354198,3.10789252 C1.34977491,2.9816596 1.44626118,2.88158499 1.69926819,2.61633649 C3.43644154,0.790989614 4.4462777,0.0787280308 6.01966734,0.14829987 C7.34695183,0.203221987 8.56368248,0.982164509 9.74222827,2.44511714 C12.4300391,5.78905145 12.3121903,7.7374558 10.1499158,9.93079789 C10.0425146,10.0397422 9.95697526,10.1246273 9.76020675,10.3185081 L9.57609383,10.5002593 C9.58654687,10.6110393 9.63774191,10.7892694 9.75196756,11.0377279 C10.1956227,12.0027466 11.3290528,13.4554403 13.3153131,15.4413111 C14.7780661,16.9031861 16.0120897,17.9626725 16.9716543,18.586856 C17.3367925,18.8238128 17.6939111,19.0157145 17.9875135,19.1195986 C18.0957335,19.1578897 18.1859131,19.1805389 18.2506595,19.1891397 L18.4432854,18.9946822 Z M22.5056183,26.9018688 C23.4181605,26.9018688 24.0748092,26.6897288 24.440842,26.3242925 C24.5724421,26.1926924 24.4951953,26.2667463 24.9607857,25.8227586 C26.4453831,24.4135215 26.9400269,23.7160906 26.9028481,22.8097875 C26.8714021,22.0491871 26.3566513,21.2450324 25.2432854,20.3502939 C22.4170914,18.0787673 21.6218394,18.2051397 19.659753,20.1964731 L19.3733946,20.4855451 C18.537309,21.3216307 17.453787,20.9382526 16.0400087,20.0207791 C14.9633617,19.3204359 13.6461381,18.1895171 12.1064013,16.6507044 C8.17241464,12.7174893 7.15417475,10.5026598 8.27622981,9.38062954 L8.55942653,9.101041 C8.75082769,8.91244821 8.8325669,8.83133422 8.93216959,8.73030044 C10.4899437,7.15014421 10.5487442,6.1779912 8.40999633,3.51715126 C7.51276229,2.40339722 6.70808679,1.88824954 5.94655082,1.85673427 C5.06061311,1.81756198 4.32893881,2.33362936 2.93730332,3.79589917 C2.67382895,4.0721223 2.57196165,4.17777805 2.43269458,4.31704512 C1.62727233,5.12246736 1.63002955,7.218163 2.63713105,9.88449919 C3.81394063,13.0053393 6.16078963,16.4326876 9.24299458,19.5148925 C12.3254342,22.5973322 15.7519222,24.9440628 18.8715167,26.1207292 C20.244167,26.63819 21.4927578,26.9018688 22.5056183,26.9018688 Z" id="call"></path>
                    </g>
                </g>
            </g>
        </g>
    </g>
</svg>