<?xml version="1.0" encoding="UTF-8"?>
<svg width="10px" height="10px" viewBox="0 0 10 10" version="1.1" xmlns="http://www.w3.org/2000/svg" xmlns:xlink="http://www.w3.org/1999/xlink">
    <!-- Generator: Sketch 50.2 (55047) - http://www.bohemiancoding.com/sketch -->
    <title>delete</title>
    <desc>Created with Sketch.</desc>
    <defs></defs>
    <g id="Page-1" stroke="none" stroke-width="1" fill="none" fill-rule="evenodd">
        <g id="spliceminicart" transform="translate(-1164.000000, -105.000000)" fill="#C5C5C5" fill-rule="nonzero">
            <g id="minicart" transform="translate(797.000000, 30.000000)">
                <g id="cancel-music-(2)" transform="translate(367.000000, 75.000000)">
                    <path d="M6.18848519,5.00002348 L9.75385273,1.43465175 C10.0820491,1.10645501 10.0820491,0.574344311 9.75385273,0.246194514 C9.42565636,-0.0820022349 8.89359325,-0.0820022349 8.56539688,0.246194514 L4.99998239,3.81161319 L1.4345679,0.246147562 C1.10637154,-0.0820491873 0.574308422,-0.0820491873 0.246112059,0.246147562 C-0.0820373529,0.574344311 -0.0820373529,1.10645501 0.246112059,1.4346048 L3.81152655,4.99997652 L0.246112059,8.5653952 C-0.0820373529,8.89359195 -0.0820373529,9.42570264 0.246112059,9.75385244 C0.574308422,10.0820492 1.10637154,10.0820492 1.4345679,9.75385244 L4.99998239,6.18843376 L8.56539688,9.75385244 C8.89354629,10.0820492 9.42565636,10.0820492 9.75385273,9.75385244 C10.0820491,9.42565569 10.0820491,8.89359195 9.75385273,8.5653952 L6.18848519,5.00002348 Z" id="delete"></path>
                </g>
            </g>
        </g>
    </g>
</svg>