<?xml version="1.0" encoding="UTF-8"?>
<svg width="41px" height="28px" viewBox="0 0 41 28" version="1.1" xmlns="http://www.w3.org/2000/svg" xmlns:xlink="http://www.w3.org/1999/xlink">
    <!-- Generator: Sketch 50.2 (55047) - http://www.bohemiancoding.com/sketch -->
    <title>delivery</title>
    <desc>Created with Sketch.</desc>
    <defs></defs>
    <g id="Page-1" stroke="none" stroke-width="1" fill="none" fill-rule="evenodd">
        <g id="splice" transform="translate(-821.000000, -94.000000)" fill="#ABABAB">
            <g id="header" transform="translate(0.000000, -1.000000)">
                <g id="middleStrip" transform="translate(243.000000, 53.000000)">
                    <g id="truck" transform="translate(578.000000, 42.000000)">
                        <g id="Capa_1">
                            <path d="M38.7098326,6.44939024 C37.3460251,4.98109756 35.4075314,4.17865854 33.2546025,4.17865854 L27.6364017,4.17865854 L27.6364017,1.03719512 C27.6364017,0.473780488 27.1732218,0.012804878 26.607113,0.012804878 L1.0292887,0.012804878 C0.463179916,0.012804878 0,0.473780488 0,1.03719512 L0,23.5652439 C0,24.1286585 0.463179916,24.5896341 1.0292887,24.5896341 L5.1292887,24.5896341 C5.46380753,26.4847561 7.11924686,27.927439 9.11778243,27.927439 C11.116318,27.927439 12.7717573,26.4847561 13.1062762,24.5896341 L26.607113,24.5896341 L28.8629707,24.5896341 C29.1974895,26.4847561 30.8529289,27.927439 32.8514644,27.927439 C34.85,27.927439 36.5054393,26.4847561 36.8399582,24.5896341 L39.9106695,24.5896341 C40.4767782,24.5896341 40.9399582,24.1286585 40.9399582,23.5652439 L40.9399582,12.979878 C40.9313808,10.2737805 40.1679916,8.01158537 38.7098326,6.44939024 L38.7098326,6.44939024 Z M2.05857741,2.06158537 L25.5778243,2.06158537 L25.5778243,5.20304878 L25.5778243,22.5493902 L12.9261506,22.5493902 C12.3686192,20.9957317 10.8675732,19.877439 9.11778243,19.877439 C7.36799163,19.877439 5.86694561,20.9957317 5.30941423,22.5493902 L2.05857741,22.5493902 L2.05857741,2.06158537 L2.05857741,2.06158537 Z M9.11778243,25.8786585 C8.01987448,25.8786585 7.12782427,24.9908537 7.12782427,23.8981707 C7.12782427,22.8054878 8.01987448,21.9176829 9.11778243,21.9176829 C10.2156904,21.9176829 11.1077406,22.8054878 11.1077406,23.8981707 C11.1077406,24.9908537 10.2156904,25.8786585 9.11778243,25.8786585 L9.11778243,25.8786585 Z M32.8514644,25.8786585 C31.7535565,25.8786585 30.8615063,24.9908537 30.8615063,23.8981707 C30.8615063,22.8054878 31.7535565,21.9176829 32.8514644,21.9176829 C33.9493724,21.9176829 34.8414226,22.8054878 34.8414226,23.8981707 C34.8414226,24.9908537 33.9493724,25.8786585 32.8514644,25.8786585 L32.8514644,25.8786585 Z M38.8728033,22.5408537 L36.6598326,22.5408537 C36.1023013,20.9871951 34.6012552,19.8689024 32.8514644,19.8689024 C31.1016736,19.8689024 29.6006276,20.9871951 29.0430962,22.5408537 L27.6449791,22.5408537 L27.6449791,6.22743902 L33.2631799,6.22743902 C36.7284519,6.22743902 38.8813808,8.81402439 38.8813808,12.979878 L38.8813808,22.5408537 L38.8728033,22.5408537 L38.8728033,22.5408537 Z" id="delivery"></path>
                        </g>
                    </g>
                </g>
            </g>
        </g>
    </g>
</svg>