<?xml version="1.0" encoding="UTF-8"?>
<svg width="13px" height="9px" viewBox="0 0 13 9" version="1.1" xmlns="http://www.w3.org/2000/svg" xmlns:xlink="http://www.w3.org/1999/xlink">
    <!-- Generator: Sketch 50.2 (55047) - http://www.bohemiancoding.com/sketch -->
    <title>email</title>
    <desc>Created with Sketch.</desc>
    <defs></defs>
    <g id="Page-1" stroke="none" stroke-width="1" fill="none" fill-rule="evenodd">
        <g id="splice" transform="translate(-1040.000000, -2661.000000)" fill="#003578">
            <g id="footer" transform="translate(0.000000, 2539.000000)">
                <g id="envelope" transform="translate(1040.000000, 122.000000)">
                    <g id="Capa_1">
                        <path d="M12.462775,0.239516129 C12.66395,0.239516129 12.82905,0.387 12.82905,0.566709677 L12.82905,8.57119355 C12.82905,8.75090323 12.66395,8.8983871 12.462775,8.8983871 L12.375025,8.8983871 L0.448825,8.8983871 L0.361075,8.8983871 C0.1599,8.89809677 0,8.7506129 0,8.57090323 L0,0.566709677 C0,0.387 0.1599,0.239516129 0.361075,0.239516129 L0.448825,0.239516129 L0.55185,0.239516129 L0.742625,0.239516129 L12.276875,0.239516129 L12.375025,0.239516129 L12.462775,0.239516129 L12.462775,0.239516129 Z M6.411925,4.74619355 L9.156225,2.62654839 L11.400025,0.889258065 L11.389625,0.889258065 L11.20925,0.889258065 L1.789775,0.889258065 L1.614275,0.889258065 L1.438775,0.889258065 L1.423825,0.889258065 L3.667625,2.62654839 L6.411925,4.74619355 L6.411925,4.74619355 Z M9.630725,3.11487097 L6.654375,5.41887097 C6.52015,5.52483871 6.313775,5.52948387 6.174675,5.42351613 L3.193125,3.11487097 L0.72735,1.20716129 L0.72735,7.93045161 L3.193125,6.01809677 L4.575675,4.95348387 C4.725175,4.83358065 4.95755,4.84751613 5.08625,4.98570968 C5.220475,5.11925806 5.199675,5.32683871 5.050175,5.44180645 L3.667625,6.51077419 L1.423825,8.24341935 L11.40035,8.24341935 L9.15655,6.51077419 L7.774,5.44180645 C7.6245,5.32654839 7.6089,5.11925806 7.737925,4.98570968 C7.87215,4.84751613 8.099,4.83358065 8.2485,4.95348387 L9.63105,6.01809677 L12.102025,7.93045161 L12.102025,1.20716129 L9.630725,3.11487097 L9.630725,3.11487097 Z" id="email"></path>
                    </g>
                </g>
            </g>
        </g>
    </g>
</svg>