<?xml version="1.0" encoding="UTF-8"?>
<svg width="31px" height="31px" viewBox="0 0 31 31" version="1.1" xmlns="http://www.w3.org/2000/svg" xmlns:xlink="http://www.w3.org/1999/xlink">
    <!-- Generator: Sketch 50.2 (55047) - http://www.bohemiancoding.com/sketch -->
    <title>facebook</title>
    <desc>Created with Sketch.</desc>
    <defs></defs>
    <g id="Page-1" stroke="none" stroke-width="1" fill="none" fill-rule="evenodd">
        <g id="splice" transform="translate(-254.000000, -2718.000000)" fill="#457AB2">
            <g id="footer" transform="translate(0.000000, 2539.000000)">
                <path d="M254,194.5 C254,185.939586 260.937704,179 269.5,179 C278.060414,179 285,185.937704 285,194.5 C285,203.060414 278.062296,210 269.5,210 C260.939586,210 254,203.062296 254,194.5 Z M273.661086,187.003329 L271.502396,187 C269.077181,187 267.5099,188.54552 267.5099,190.937622 L267.5099,192.753129 L265.339433,192.753129 C265.151879,192.753129 265,192.899275 265,193.079544 L265,195.710007 C265,195.890276 265.152052,196.036256 265.339433,196.036256 L267.5099,196.036256 L267.5099,202.673751 C267.5099,202.85402 267.661779,203 267.849333,203 L270.681175,203 C270.868729,203 271.020608,202.853854 271.020608,202.673751 L271.020608,196.036256 L273.558391,196.036256 C273.745945,196.036256 273.897824,195.890276 273.897824,195.710007 L273.898863,193.079544 C273.898863,192.992988 273.863014,192.910094 273.799457,192.84884 C273.7359,192.787585 273.64931,192.753129 273.559256,192.753129 L271.020608,192.753129 L271.020608,191.214101 C271.020608,190.474382 271.204006,190.098863 272.206546,190.098863 L273.66074,190.098364 C273.848121,190.098364 274,189.952217 274,189.772115 L274,187.329578 C274,187.149642 273.848294,187.003662 273.661086,187.003329 Z" id="facebook"></path>
            </g>
        </g>
    </g>
</svg>