<?xml version="1.0" encoding="UTF-8"?>
<svg width="13px" height="12px" viewBox="0 0 13 12" version="1.1" xmlns="http://www.w3.org/2000/svg" xmlns:xlink="http://www.w3.org/1999/xlink">
    <!-- Generator: Sketch 50.2 (55047) - http://www.bohemiancoding.com/sketch -->
    <title>franchise</title>
    <desc>Created with Sketch.</desc>
    <defs></defs>
    <g id="Page-1" stroke="none" stroke-width="1" fill="none" fill-rule="evenodd">
        <g id="splice" transform="translate(-1039.000000, -2739.000000)" fill="#003578">
            <g id="footer" transform="translate(0.000000, 2539.000000)">
                <g id="shop-copy" transform="translate(1039.000000, 200.000000)">
                    <path d="M12.9840816,3.92663551 C12.9840816,3.86775701 12.9708163,3.81168224 12.9416327,3.76121495 L11.0102041,0.172429907 C10.9544898,0.0686915888 10.8483673,0.00140186916 10.7342857,0.00140186916 L2.24714286,0.00140186916 C2.13306122,0.00140186916 2.02693878,0.0658878505 1.97122449,0.172429907 L0.0424489796,3.76121495 C0.0159183673,3.81168224 0,3.86775701 0,3.92663551 C0,4.73130841 0.458979592,5.42102804 1.11428571,5.72663551 L1.11428571,11.6453271 C1.11428571,11.8303738 1.25755102,11.9817757 1.43265306,11.9817757 L3.19163265,11.9817757 L3.19959184,11.9817757 L5.66693878,11.9817757 L5.67489796,11.9817757 L11.5487755,11.9817757 C11.7238776,11.9817757 11.8671429,11.8303738 11.8671429,11.6453271 L11.8671429,5.76869159 C11.8671429,5.7546729 11.8671429,5.74345794 11.8644898,5.73224299 C12.522449,5.42663551 12.9840816,4.73411215 12.9840816,3.92663551 L12.9840816,3.92663551 Z M2.43285714,0.677102804 L10.5485714,0.677102804 L12.0581633,3.48364486 L0.925918367,3.48364486 L2.43285714,0.677102804 L2.43285714,0.677102804 Z M9.24061224,4.15373832 C9.13979592,4.75934579 8.63836735,5.21915888 8.03612245,5.21915888 C7.43387755,5.21915888 6.93244898,4.75934579 6.83163265,4.15373832 L9.24061224,4.15373832 L9.24061224,4.15373832 Z M6.15510204,4.15373832 C6.05428571,4.75934579 5.55285714,5.21915888 4.95061224,5.21915888 C4.34836735,5.21915888 3.84693878,4.75934579 3.74346939,4.15373832 L6.15510204,4.15373832 L6.15510204,4.15373832 Z M0.657959184,4.15373832 L3.06959184,4.15373832 C2.96877551,4.75934579 2.46469388,5.21915888 1.86244898,5.21915888 C1.26020408,5.22196262 0.75877551,4.75934579 0.657959184,4.15373832 L0.657959184,4.15373832 Z M7.29857143,11.3088785 L5.46795918,11.3088785 L5.46795918,7.67803738 C5.46795918,7.41448598 5.66959184,7.19859813 5.92163265,7.19859813 L6.84755102,7.19859813 C7.09693878,7.19859813 7.30122449,7.41168224 7.30122449,7.67803738 L7.30122449,11.3088785 L7.29857143,11.3088785 L7.29857143,11.3088785 Z M7.93530612,11.3088785 L7.93530612,7.67803738 C7.93530612,7.04439252 7.44714286,6.52570093 6.84489796,6.52570093 L5.91897959,6.52570093 C5.31938776,6.52570093 4.82857143,7.04158879 4.82857143,7.67803738 L4.82857143,11.3116822 L1.75102041,11.3116822 L1.75102041,5.89205607 C1.78816327,5.89485981 1.82530612,5.89485981 1.86244898,5.89485981 C2.5044898,5.89485981 3.0722449,5.55 3.40653061,5.02570093 C3.74081633,5.55 4.30857143,5.89485981 4.95061224,5.89485981 C5.59265306,5.89485981 6.1577551,5.55 6.49469388,5.02570093 C6.82897959,5.55 7.39673469,5.89485981 8.03612245,5.89485981 C8.67816327,5.89485981 9.24326531,5.55 9.57755102,5.02570093 C9.91183673,5.55 10.4795918,5.89485981 11.1216327,5.89485981 C11.1587755,5.89485981 11.1932653,5.89205607 11.2304082,5.89205607 L11.2304082,11.3088785 L7.93530612,11.3088785 Z M11.1216327,5.22196262 C10.5193878,5.22196262 10.0179592,4.76214953 9.91714286,4.15654206 L12.3287755,4.15654206 C12.2253061,4.75934579 11.7238776,5.22196262 11.1216327,5.22196262 L11.1216327,5.22196262 Z" id="franchise"></path>
                </g>
            </g>
        </g>
    </g>
</svg>