<?xml version="1.0" encoding="UTF-8"?>
<svg width="14px" height="17px" viewBox="0 0 14 17" version="1.1" xmlns="http://www.w3.org/2000/svg" xmlns:xlink="http://www.w3.org/1999/xlink">
    <!-- Generator: Sketch 50.2 (55047) - http://www.bohemiancoding.com/sketch -->
    <title>gifting</title>
    <desc>Created with Sketch.</desc>
    <defs></defs>
    <g id="Page-1" stroke="none" stroke-width="1" fill="none" fill-rule="evenodd">
        <g id="splice" transform="translate(-477.000000, -2305.000000)" fill="#005FB5">
            <g id="advertising" transform="translate(-19.000000, 1398.000000)">
                <g id="3" transform="translate(0.000000, 474.000000)">
                    <g id="shopping-bag(1)" transform="translate(496.000000, 433.000000)">
                        <g id="Capa_1">
                            <path d="M13.9874557,16.2864067 L12.9584962,4.76862201 C12.9304153,4.45408134 12.6681378,4.21315311 12.3539875,4.21315311 L10.2320569,4.21315311 L10.2320569,3.25122967 C10.2320569,1.45850239 8.78107424,0 6.99757135,0 C5.21414939,0 3.76332858,1.45850239 3.76332858,3.25122967 L3.76332858,4.21315311 L1.6399413,4.21315311 C1.32579101,4.21315311 1.06351355,4.45408134 1.03543263,4.76862201 L0.00242684492,16.3317129 C-0.0127870279,16.5023636 0.0440222206,16.6714689 0.15901644,16.7978708 C0.27401066,16.9242727 0.436588695,16.9962584 0.606935515,16.9962584 L13.3870742,16.9962584 L13.3886927,16.9962584 C13.7239644,16.9962584 13.9956292,16.7231196 13.9956292,16.3862105 C13.9955482,16.3522919 13.9927968,16.3188612 13.9874557,16.2864067 L13.9874557,16.2864067 Z M4.97720141,3.25122967 C4.97720141,2.13126316 5.88355979,1.22009569 6.99765228,1.22009569 C8.11182569,1.22009569 9.018265,2.13126316 9.018265,3.25122967 L9.018265,4.21315311 L4.97720141,4.21315311 L4.97720141,3.25122967 L4.97720141,3.25122967 Z M1.27084303,15.776244 L2.19484303,5.4332488 L3.76332858,5.4332488 L3.76332858,6.52417703 C3.76332858,6.86108612 4.03499332,7.13422488 4.370265,7.13422488 C4.70553667,7.13422488 4.97720141,6.86108612 4.97720141,6.52417703 L4.97720141,5.4332488 L9.018265,5.4332488 L9.018265,6.52417703 C9.018265,6.86108612 9.28992974,7.13422488 9.62520141,7.13422488 C9.96047309,7.13422488 10.2321378,6.86108612 10.2321378,6.52417703 L10.2321378,5.4332488 L11.7991667,5.4332488 L12.7231667,15.776244 L1.27084303,15.776244 L1.27084303,15.776244 Z" id="gifting"></path>
                        </g>
                    </g>
                </g>
            </g>
        </g>
    </g>
</svg>