<?xml version="1.0" encoding="UTF-8"?>
<svg width="31px" height="31px" viewBox="0 0 31 31" version="1.1" xmlns="http://www.w3.org/2000/svg" xmlns:xlink="http://www.w3.org/1999/xlink">
    <!-- Generator: Sketch 50.2 (55047) - http://www.bohemiancoding.com/sketch -->
    <title>instagram</title>
    <desc>Created with Sketch.</desc>
    <defs></defs>
    <g id="Page-1" stroke="none" stroke-width="1" fill="none" fill-rule="evenodd">
        <g id="splice" transform="translate(-388.000000, -2718.000000)" fill="#2A5B83">
            <g id="footer" transform="translate(0.000000, 2539.000000)">
                <path d="M388,194.5 C388,185.939586 394.937704,179 403.5,179 C412.060414,179 419,185.937704 419,194.5 C419,203.060414 412.062296,210 403.5,210 C394.939586,210 388,203.062296 388,194.5 Z M407.550858,187.335599 C405.126622,187.03019 396.380335,186.019953 396.337185,190.098529 C396.313202,190.131438 396.298853,190.169063 396.289218,190.220734 C395.972403,192.946141 395.765976,196.5644 396.495645,199.238137 C396.956466,200.929727 398.262162,201.418443 399.927927,201.65342 C402.419296,202.010499 406.019569,202.278385 408.46297,201.474829 C410.320709,200.864011 410.642237,199.501308 410.714293,197.739184 C410.843951,194.534493 412.211963,187.92294 407.550858,187.335599 Z M407.358779,192.006437 C408.693276,193.984675 408.155686,196.611457 406.322035,198.082218 C404.2674,199.726853 401.406431,199.068978 399.745484,197.255184 C399.697412,197.198798 399.644627,197.165889 399.587024,197.147127 C398.564524,195.408481 398.660563,192.960289 400.019044,191.489529 C402.011155,189.3327 405.717102,189.572393 407.358779,192.006437 Z M409.485366,189.821416 C409.47573,190.667211 408.362113,191.348563 407.617991,190.83637 C407.301176,190.610825 407.056313,190.21612 406.979544,189.8167 C406.993892,189.506575 407.089932,189.219928 407.296359,189.032007 C408.064464,188.341224 409.495001,188.698303 409.485366,189.821416 Z M400.815951,195.342765 C401.396796,196.940446 403.460962,198.209138 405.107456,197.222377 C408.434064,195.229992 404.526612,189.816803 401.785562,192.217937 C400.815951,192.777085 400.436716,194.294799 400.815951,195.342765 Z" id="instagram"></path>
            </g>
        </g>
    </g>
</svg>