<?xml version="1.0" encoding="UTF-8"?>
<svg width="9px" height="14px" viewBox="0 0 9 14" version="1.1" xmlns="http://www.w3.org/2000/svg" xmlns:xlink="http://www.w3.org/1999/xlink">
    <!-- Generator: Sketch 50.2 (55047) - http://www.bohemiancoding.com/sketch -->
    <title>locator</title>
    <desc>Created with Sketch.</desc>
    <defs></defs>
    <g id="Page-1" stroke="none" stroke-width="1" fill="none" fill-rule="evenodd">
        <g id="splice" transform="translate(-1041.000000, -2696.000000)" fill="#003578">
            <g id="footer" transform="translate(0.000000, 2539.000000)">
                <g id="placeholder" transform="translate(1041.000000, 157.000000)">
                    <g id="Capa_1">
                        <path d="M4.47942857,0 C5.70375,0 6.82103571,0.494772727 7.62203571,1.29277273 C8.42817857,2.09077273 8.928,3.19168182 8.928,4.40872727 C8.928,5.64104545 8.127,7.12568182 7.42821429,8.42386364 C7.21382143,8.81777273 7.00971429,9.19672727 6.84675,9.53495455 L4.80085714,13.7521364 C4.71407143,13.9290455 4.5,14.0047727 4.32128571,13.9188636 C4.24478571,13.8835455 4.18853571,13.8227727 4.15285714,13.7521364 L4.15285714,13.7521364 L2.10696429,9.53495455 C1.94367857,9.19672727 1.73957143,8.81777273 1.53032143,8.42386364 C0.826392857,7.126 0.0253928571,5.64104545 0.0253928571,4.40872727 C0.0253928571,3.19168182 0.525214286,2.09045455 1.33135714,1.29277273 C2.13782143,0.494772727 3.24996429,0 4.47942857,0 L4.47942857,0 L4.47942857,0 Z M4.47942857,2.24731818 C5.08146429,2.24731818 5.62725,2.48977273 6.02003571,2.87859091 C6.41282143,3.26740909 6.65775,3.808 6.65775,4.40872727 C6.65775,5.00468182 6.41282143,5.54495455 6.02003571,5.93409091 C5.62725,6.32290909 5.08146429,6.56536364 4.47942857,6.56536364 C3.87739286,6.56536364 3.33160714,6.32290909 2.93367857,5.93409091 C2.54089286,5.54527273 2.29596429,5.00468182 2.29596429,4.40872727 C2.29596429,3.80768182 2.54089286,3.26740909 2.93367857,2.87859091 C3.33160714,2.48977273 3.87739286,2.24731818 4.47942857,2.24731818 L4.47942857,2.24731818 L4.47942857,2.24731818 Z M5.50992857,3.38386364 C5.24475,3.12136364 4.8825,2.95972727 4.47942857,2.95972727 C4.07121429,2.95972727 3.70896429,3.12136364 3.44378571,3.38386364 C3.17860714,3.64636364 3.01532143,4.00495455 3.01532143,4.40904545 C3.01532143,4.80804545 3.17860714,5.16663636 3.44378571,5.42913636 C3.70896429,5.69163636 4.07121429,5.85327273 4.47942857,5.85327273 C4.8825,5.85327273 5.24475,5.69163636 5.50992857,5.42913636 C5.77510714,5.16663636 5.93839286,4.80804545 5.93839286,4.40904545 C5.93871429,4.00495455 5.77542857,3.64636364 5.50992857,3.38386364 L5.50992857,3.38386364 L5.50992857,3.38386364 Z M7.11707143,1.79804545 C6.43853571,1.12636364 5.50992857,0.712090909 4.47942857,0.712090909 C3.44892857,0.712090909 2.51517857,1.12636364 1.84178571,1.79804545 C1.16325,2.46463636 0.74475,3.38895455 0.74475,4.40904545 C0.74475,5.46954545 1.49978571,6.8635 2.16289286,8.09072727 C2.37728571,8.48972727 2.58139286,8.87345455 2.75464286,9.22695455 L4.47910714,12.7772273 L6.19842857,9.22695455 C6.372,8.87345455 6.57610714,8.48972727 6.79017857,8.09072727 C7.45328571,6.8635 8.20832143,5.46954545 8.20832143,4.40904545 C8.20896429,3.38895455 7.79046429,2.46463636 7.11707143,1.79804545 L7.11707143,1.79804545 L7.11707143,1.79804545 Z" id="locator"></path>
                    </g>
                </g>
            </g>
        </g>
    </g>
</svg>