<?xml version="1.0" encoding="UTF-8"?>
<svg width="31px" height="31px" viewBox="0 0 31 31" version="1.1" xmlns="http://www.w3.org/2000/svg" xmlns:xlink="http://www.w3.org/1999/xlink">
    <!-- Generator: Sketch 50.2 (55047) - http://www.bohemiancoding.com/sketch -->
    <title>pinterest</title>
    <desc>Created with Sketch.</desc>
    <defs></defs>
    <g id="Page-1" stroke="none" stroke-width="1" fill="none" fill-rule="evenodd">
        <g id="splice" transform="translate(-344.000000, -2718.000000)" fill="#CC2029">
            <g id="footer" transform="translate(0.000000, 2539.000000)">
                <path d="M344,194.5 C344,185.939586 350.937704,179 359.5,179 C368.060414,179 375,185.937704 375,194.5 C375,203.060414 368.062296,210 359.5,210 C350.939586,210 344,203.062296 344,194.5 Z M364.314024,187.742061 C363.175495,186.618702 361.599894,186 359.877483,186 C357.246413,186 355.628189,187.108499 354.733988,188.038362 C353.631947,189.184311 353,190.7059 353,192.213068 C353,194.105418 353.770116,195.557866 355.059777,196.098217 C355.146359,196.134679 355.233475,196.153047 355.318883,196.153047 C355.590952,196.153047 355.806527,195.970079 355.881213,195.676573 C355.924744,195.50819 356.025623,195.092798 356.069474,194.912462 C356.163365,194.55634 356.087505,194.385051 355.88276,194.137055 C355.509758,193.683446 355.336061,193.147043 355.336061,192.448947 C355.336061,190.375384 356.83831,188.171599 359.622591,188.171599 C361.831793,188.171599 363.204142,189.462134 363.204142,191.539536 C363.204142,192.850468 362.929406,194.064515 362.430399,194.95819 C362.083644,195.57914 361.473889,196.319346 360.537811,196.319346 C360.133014,196.319346 359.769402,196.148441 359.539957,195.850494 C359.323208,195.568832 359.251777,195.20498 359.338946,194.825775 C359.437424,194.397333 359.571698,193.950413 359.701651,193.518353 C359.938672,192.729238 360.162729,191.983933 360.162729,191.389301 C360.162729,190.372204 359.55436,189.688802 358.64901,189.688802 C357.498424,189.688802 356.597022,190.889909 356.597022,192.423232 C356.597022,193.175226 356.791471,193.737673 356.879493,193.953648 C356.73455,194.584852 355.873104,198.337476 355.709703,199.045113 C355.615225,199.458203 355.046067,202.720865 355.98812,202.981034 C357.046576,203.273333 357.992683,200.095712 358.088974,199.73663 C358.167021,199.444605 358.440104,198.340382 358.607453,197.661586 C359.11841,198.167448 359.941126,198.509423 360.741649,198.509423 C362.25078,198.509423 363.607978,197.811437 364.563261,196.544149 C365.489737,195.314969 366,193.601749 366,191.72031 C366,190.249439 365.385444,188.799404 364.314024,187.742061 Z" id="pinterest"></path>
            </g>
        </g>
    </g>
</svg>