<?xml version="1.0" encoding="UTF-8"?>
<svg width="31px" height="31px" viewBox="0 0 31 31" version="1.1" xmlns="http://www.w3.org/2000/svg" xmlns:xlink="http://www.w3.org/1999/xlink">
    <!-- Generator: Sketch 50.2 (55047) - http://www.bohemiancoding.com/sketch -->
    <title>twitter</title>
    <desc>Created with Sketch.</desc>
    <defs></defs>
    <g id="Page-1" stroke="none" stroke-width="1" fill="none" fill-rule="evenodd">
        <g id="splice" transform="translate(-299.000000, -2718.000000)" fill="#33CCFF">
            <g id="footer" transform="translate(0.000000, 2539.000000)">
                <path d="M299,194.5 C299,185.939586 305.937704,179 314.5,179 C323.060414,179 330,185.937704 330,194.5 C330,203.060414 323.062296,210 314.5,210 C305.939586,210 299,203.062296 299,194.5 Z M323,189.538105 C322.41111,189.799114 321.77924,189.976128 321.115343,190.055156 C321.793227,189.649114 322.31213,189.005075 322.558065,188.240011 C321.922194,188.616032 321.220311,188.889071 320.47244,189.037084 C319.873564,188.39804 319.021719,188 318.076881,188 C316.264224,188 314.794496,189.470113 314.794496,191.28225 C314.794496,191.539259 314.82349,191.79028 314.87949,192.030317 C312.152008,191.893287 309.733469,190.586198 308.114773,188.600027 C307.831818,189.084076 307.670851,189.648094 307.670851,190.250161 C307.670851,191.389259 308.250747,192.394334 309.130592,192.982358 C308.592682,192.964367 308.086773,192.816354 307.64387,192.570328 L307.64387,192.611332 C307.64387,194.201451 308.775663,195.528545 310.276371,195.830586 C310.001417,195.904592 309.711482,195.945597 309.411533,195.945597 C309.199585,195.945597 308.994618,195.924598 308.79365,195.884587 C309.211559,197.189689 310.423352,198.138749 311.859093,198.164769 C310.736294,199.044844 309.320553,199.567884 307.782851,199.567884 C307.517909,199.567884 307.256942,199.55188 307,199.522879 C308.452734,200.455961 310.177417,201 312.031067,201 C318.068933,201 321.369331,195.99761 321.369331,191.659291 L321.358324,191.234264 C322.003188,190.774195 322.561071,190.19616 323,189.538105 Z" id="twitter"></path>
            </g>
        </g>
    </g>
</svg>